<?xml version="1.0" standalone="no"?>
<!DOCTYPE svg PUBLIC "-//W3C//DTD SVG 20010904//EN"
 "http://www.w3.org/TR/2001/REC-SVG-20010904/DTD/svg10.dtd">
<svg version="1.0" xmlns="http://www.w3.org/2000/svg"
 width="225.000000pt" height="225.000000pt" viewBox="0 0 225.000000 225.000000"
 preserveAspectRatio="xMidYMid meet">

<g transform="translate(0.000000,225.000000) scale(0.100000,-0.100000)"
fill="#000000" stroke="none">
<path d="M660 1987 c0 -7 34 -201 75 -432 42 -231 109 -609 150 -840 41 -231
77 -430 80 -443 5 -22 6 -22 162 -20 l157 3 142 790 c77 435 148 827 156 873
l15 82 -73 0 c-71 0 -73 -1 -78 -27 -6 -27 -207 -1296 -221 -1396 l-7 -48 -86
3 -86 3 -57 345 c-30 190 -84 519 -119 733 l-63 387 -73 0 c-53 0 -74 -4 -74
-13z"/>
<path d="M970 1988 c0 -28 152 -1064 158 -1081 4 -9 43 233 87 538 l80 555
-162 0 c-124 0 -163 -3 -163 -12z"/>
</g>
</svg>
